<svg width="256" height="256" viewBox="0 0 256 256" fill="none" xmlns="http://www.w3.org/2000/svg">
<path d="M229.13 98.1203L188.669 51.374L115.947 38.4L98.4906 84.5561L135.29 160.635L185.371 149.363L229.13 98.1203Z" fill="#6B7280"/>
<path d="M201.579 141.029L229.13 109.078L223.988 163.455L201.579 141.029Z" fill="#6B7280"/>
<path d="M230.499 163.455L256 158.436L253.63 140.482L232.192 142.298L230.499 163.455Z" fill="#6B7280"/>
<path d="M185.898 156.271L131.496 168.515L91.0454 84.8886L97.7859 67.0608L44.6673 99.7906L128.772 218.019L177.968 218.145L185.898 156.271Z" fill="#6B7280"/>
<path d="M39.7195 104.665L91.1295 176.92L62.9508 218.145H33.6626L15.5668 115.107L39.7195 104.665Z" fill="#6B7280"/>
<path d="M0 158.114L10.9972 124.983L14.8075 146.687L0 158.114Z" fill="#6B7280"/>
</svg>
